<?xml version="1.0" encoding="UTF-8"?>
<svg version="1.1" xmlns="http://www.w3.org/2000/svg" width="88" height="31">
<path d="M0 0 C29.04 0 58.08 0 88 0 C88 10.23 88 20.46 88 31 C58.96 31 29.92 31 0 31 C0 20.77 0 10.54 0 0 Z " fill="#060606" transform="translate(0,0)"/>
<path d="M0 0 C1.94616211 -0.0309375 1.94616211 -0.0309375 3.93164062 -0.0625 C5.17751953 -0.06765625 6.42339844 -0.0728125 7.70703125 -0.078125 C8.85276611 -0.0874707 9.99850098 -0.09681641 11.17895508 -0.10644531 C14.51005948 0.28821609 15.71181784 1.07864893 18.1875 3.25 C20.05993907 4.01804431 21.95837125 4.72503511 23.875 5.375 C29.09695674 7.15945674 29.09695674 7.15945674 30.1875 8.25 C30.26063567 10.78049402 30.27997527 13.28304837 30.25 15.8125 C30.24548828 16.52341797 30.24097656 17.23433594 30.23632812 17.96679688 C30.22450864 19.72790013 30.20657263 21.48896036 30.1875 23.25 C27.48620231 24.45625877 24.7783864 25.63993392 22.0625 26.8125 C21.30195312 27.15474609 20.54140625 27.49699219 19.7578125 27.84960938 C15.11386125 29.83129547 12.21914598 30.6492906 7.1875 29.25 C2.07529647 28.17734189 2.07529647 28.17734189 -2.8125 29.25 C-2.8125 27.93 -2.8125 26.61 -2.8125 25.25 C-3.72 25.29125 -4.6275 25.3325 -5.5625 25.375 C-8.6907046 25.25468444 -10.19864006 24.8585292 -12.8125 23.25 C-13.1425 24.57 -13.4725 25.89 -13.8125 27.25 C-14.1425 26.26 -14.4725 25.27 -14.8125 24.25 C-16.4625 24.91 -18.1125 25.57 -19.8125 26.25 C-22.26239101 22.50764681 -22.04336143 18.80774581 -21.9375 14.5 C-21.92847656 13.80261719 -21.91945313 13.10523438 -21.91015625 12.38671875 C-21.88669888 10.67433042 -21.85083104 8.96211996 -21.8125 7.25 C-20.719375 6.940625 -19.62625 6.63125 -18.5 6.3125 C-16.25842006 5.66662103 -14.0255649 4.9876883 -11.8125 4.25 C-12.8025 3.26 -13.7925 2.27 -14.8125 1.25 C-12.05779316 -1.50470684 -3.71125782 0.01461845 0 0 Z M-10.8125 2.25 C-9.8125 4.25 -9.8125 4.25 -9.8125 4.25 Z " fill="#403C41" transform="translate(32.8125,-0.25)"/>
<path d="M0 0 C6.27 0 12.54 0 19 0 C19 0.66 19 1.32 19 2 C19.99 2.99 20.98 3.98 22 5 C18.7 5.66 15.4 6.32 12 7 C11.67 11.95 11.34 16.9 11 22 C11.66 22.33 12.32 22.66 13 23 C13.33 23.66 13.66 24.32 14 25 C15.97536745 24.65213292 15.97536745 24.65213292 18 24 C18.33 23.34 18.66 22.68 19 22 C19.70125 22.309375 20.4025 22.61875 21.125 22.9375 C23.99973255 24.10724581 23.99973255 24.10724581 27.1875 24.5 C30 25 30 25 32 27 C37.48387581 28.6865877 42.3826716 29.34327418 48 28 C49.41570117 27.84507421 50.83246928 27.69968039 52.25 27.5625 C56.01930314 27.37695757 56.01930314 27.37695757 58 25 C58.99 25.33 59.98 25.66 61 26 C60 29 60 29 59 31 C39.53 31 20.06 31 0 31 C0 20.77 0 10.54 0 0 Z " fill="#060606" transform="translate(0,0)"/>
<path d="M0 0 C1.16781006 0.00523682 2.33562012 0.01047363 3.53881836 0.01586914 C4.79887695 0.0190918 6.05893555 0.02231445 7.35717773 0.02563477 C8.6976732 0.03399136 10.03816799 0.04245632 11.37866211 0.05102539 C12.72306153 0.05603879 14.06746271 0.06060197 15.41186523 0.06469727 C18.71334151 0.07653051 22.01473014 0.09301568 25.31616211 0.11352539 C25.81116211 1.10352539 25.81116211 1.10352539 26.31616211 2.11352539 C25.40866211 2.01040039 24.50116211 1.90727539 23.56616211 1.80102539 C18.609048 1.75033915 14.50514772 3.97740881 10.08569336 6.01977539 C7.31616211 7.11352539 7.31616211 7.11352539 3.31616211 7.11352539 C3.31616211 8.10352539 3.31616211 9.09352539 3.31616211 10.11352539 C4.12053711 10.09290039 4.92491211 10.07227539 5.75366211 10.05102539 C8.31616211 10.11352539 8.31616211 10.11352539 9.31616211 11.11352539 C9.35709148 13.44649972 9.35857934 15.78057764 9.31616211 18.11352539 C7.99616211 18.44352539 6.67616211 18.77352539 5.31616211 19.11352539 C5.31616211 20.43352539 5.31616211 21.75352539 5.31616211 23.11352539 C10.76116211 25.09352539 10.76116211 25.09352539 16.31616211 27.11352539 C16.31616211 27.44352539 16.31616211 27.77352539 16.31616211 28.11352539 C15.36741211 28.09290039 14.41866211 28.07227539 13.44116211 28.05102539 C10.40949928 27.88800713 10.40949928 27.88800713 8.31616211 29.11352539 C8.31616211 27.79352539 8.31616211 26.47352539 8.31616211 25.11352539 C7.40866211 25.15477539 6.50116211 25.19602539 5.56616211 25.23852539 C2.43795751 25.11820983 0.93002205 24.72205459 -1.68383789 23.11352539 C-2.01383789 24.43352539 -2.34383789 25.75352539 -2.68383789 27.11352539 C-3.01383789 26.12352539 -3.34383789 25.13352539 -3.68383789 24.11352539 C-5.33383789 24.77352539 -6.98383789 25.43352539 -8.68383789 26.11352539 C-11.1337289 22.3711722 -10.91469932 18.6712712 -10.80883789 14.36352539 C-10.79981445 13.66614258 -10.79079102 12.96875977 -10.78149414 12.25024414 C-10.75803677 10.53785581 -10.72216893 8.82564535 -10.68383789 7.11352539 C-9.59071289 6.80415039 -8.49758789 6.49477539 -7.37133789 6.17602539 C-5.12975795 5.53014642 -2.89690279 4.85121369 -0.68383789 4.11352539 C-1.67383789 3.12352539 -2.66383789 2.13352539 -3.68383789 1.11352539 C-2.68383789 0.11352539 -2.68383789 0.11352539 0 0 Z M0.31616211 2.11352539 C1.31616211 4.11352539 1.31616211 4.11352539 1.31616211 4.11352539 Z " fill="#070707" transform="translate(21.683837890625,-0.113525390625)"/>
<path d="M0 0 C3.3 0 6.6 0 10 0 C9.67 0.66 9.34 1.32 9 2 C8.01 2 7.02 2 6 2 C5.7834375 2.86625 5.7834375 2.86625 5.5625 3.75 C5.04166667 5.83333333 4.52083333 7.91666667 4 10 C5.32 10 6.64 10 8 10 C8 8.68 8 7.36 8 6 C8.66 6 9.32 6 10 6 C10 11.28 10 16.56 10 22 C7.03 21.67 4.06 21.34 1 21 C1.33 24.3 1.66 27.6 2 31 C1.34 31 0.68 31 0 31 C0 20.77 0 10.54 0 0 Z " fill="#050606" transform="translate(0,0)"/>
<path d="M0 0 C0.33 0.66 0.66 1.32 1 2 C1.804375 1.979375 2.60875 1.95875 3.4375 1.9375 C6 2 6 2 7 3 C7.04092937 5.33297433 7.04241723 7.66705225 7 10 C5.68 10.33 4.36 10.66 3 11 C3 12.32 3 13.64 3 15 C6.63 16.32 10.26 17.64 14 19 C14 19.33 14 19.66 14 20 C13.05125 19.979375 12.1025 19.95875 11.125 19.9375 C8.09333717 19.77448174 8.09333717 19.77448174 6 21 C6 19.68 6 18.36 6 17 C5.0925 17.04125 4.185 17.0825 3.25 17.125 C0.1217954 17.00468444 -1.38614006 16.6085292 -4 15 C-4.33 16.32 -4.66 17.64 -5 19 C-5.90413673 15.16275828 -6.10576898 11.62497726 -6.0625 7.6875 C-6.05347656 6.61886719 -6.04445313 5.55023438 -6.03515625 4.44921875 C-6.02355469 3.64097656 -6.01195313 2.83273438 -6 2 C-4.35 2 -2.7 2 -1 2 C-0.67 1.34 -0.34 0.68 0 0 Z " fill="#0C0E12" transform="translate(24,8)"/>
<path d="M0 0 C1.65 0.33 3.3 0.66 5 1 C5 5.95 5 10.9 5 16 C4.34 16 3.68 16 3 16 C3 13.69 3 11.38 3 9 C2.34 9 1.68 9 1 9 C1 11.31 1 13.62 1 16 C0.34 16 -0.32 16 -1 16 C-1.02685095 13.52076199 -1.04676547 11.0418116 -1.0625 8.5625 C-1.07506836 7.50192383 -1.07506836 7.50192383 -1.08789062 6.41992188 C-1.09653588 4.61306441 -1.05220011 2.80612397 -1 1 C-0.67 0.67 -0.34 0.34 0 0 Z " fill="#DDDFDD" transform="translate(12,6)"/>
<path d="M0 0 C0.66 0 1.32 0 2 0 C2 5.28 2 10.56 2 16 C0.35 16 -1.3 16 -3 16 C-4 15 -4 15 -4.09765625 12.71484375 C-4.08605469 11.79832031 -4.07445312 10.88179687 -4.0625 9.9375 C-4.05347656 9.01839844 -4.04445313 8.09929688 -4.03515625 7.15234375 C-4.02355469 6.44207031 -4.01195312 5.73179688 -4 5 C-2.68 4.67 -1.36 4.34 0 4 C0 2.68 0 1.36 0 0 Z " fill="#C9CBC9" transform="translate(8,6)"/>
<path d="M0 0 C3.46941546 0.45822468 6.67395049 0.89131683 10 2 C10 2.99 10 3.98 10 5 C10.66 5 11.32 5 12 5 C11.67 4.01 11.34 3.02 11 2 C11.66 2 12.32 2 13 2 C13.33 1.34 13.66 0.68 14 0 C14.66 0 15.32 0 16 0 C16.33 2.31 16.66 4.62 17 7 C16.01 7.495 16.01 7.495 15 8 C14.52998967 11.27555608 14.52998967 11.27555608 14.375 15.0625 C14.30023438 16.35285156 14.22546875 17.64320312 14.1484375 18.97265625 C14.09945312 19.97167969 14.05046875 20.97070312 14 22 C13.67 22 13.34 22 13 22 C12.67 17.05 12.34 12.1 12 7 C7.71 5.35 3.42 3.7 -1 2 C-0.67 1.34 -0.34 0.68 0 0 Z " fill="#100C0B" transform="translate(50,1)"/>
<path d="M0 0 C1.65 0 3.3 0 5 0 C6 1 6 1 6.0625 4.5625 C6.041875 5.696875 6.02125 6.83125 6 8 C4.68 8.33 3.36 8.66 2 9 C2 9.99 2 10.98 2 12 C1.34 12 0.68 12 0 12 C0 8.04 0 4.08 0 0 Z " fill="#DBDCDC" transform="translate(25,10)"/>
<path d="M0 0 C1.65 0 3.3 0 5 0 C6 1 6 1 6.0625 4.5625 C6.041875 5.696875 6.02125 6.83125 6 8 C4.68 8.33 3.36 8.66 2 9 C2 9.99 2 10.98 2 12 C1.34 12 0.68 12 0 12 C0 8.04 0 4.08 0 0 Z " fill="#D1D3D1" transform="translate(18,10)"/>
<path d="M0 0 C0.33 0.99 0.66 1.98 1 3 C0.67 3.33 0.34 3.66 0 4 C0.33 4.99 0.66 5.98 1 7 C-0.65 7.33 -2.3 7.66 -4 8 C-3.67 6.35 -3.34 4.7 -3 3 C-3.9075 3.350625 -4.815 3.70125 -5.75 4.0625 C-9.00591313 5.00170571 -9.92749994 4.95514676 -13 4 C-11.39850114 3.32694982 -9.79368971 2.66177773 -8.1875 2 C-7.29417969 1.62875 -6.40085937 1.2575 -5.48046875 0.875 C-3 0 -3 0 0 0 Z " fill="#0E0C0B" transform="translate(63,23)"/>
<path d="M0 0 C-0.33 1.32 -0.66 2.64 -1 4 C-2.65 4 -4.3 4 -6 4 C-6 3.01 -6 2.02 -6 1 C-3.92446352 0.4465236 -2.15634036 0 0 0 Z " fill="#39383F" transform="translate(31,6)"/>
</svg>
