<?xml version="1.0" encoding="UTF-8"?>
<svg version="1.1" xmlns="http://www.w3.org/2000/svg" width="88" height="31">
<path d="M0 0 C29.04 0 58.08 0 88 0 C88 10.23 88 20.46 88 31 C58.96 31 29.92 31 0 31 C0 20.77 0 10.54 0 0 Z " fill="#13150E" transform="translate(0,0)"/>
<path d="M0 0 C28.71 0 57.42 0 87 0 C87 9.9 87 19.8 87 30 C58.29 30 29.58 30 0 30 C0 24.39 0 18.78 0 13 C0.33 13 0.66 13 1 13 C1.33 17.95 1.66 22.9 2 28 C43.085 28.495 43.085 28.495 85 29 C85 23.72 85 18.44 85 13 C61.24 13 37.48 13 13 13 C13 11.35 13 9.7 13 8 C12.34 7.01 11.68 6.02 11 5 C11.99 4.67 12.98 4.34 14 4 C12.68 3.34 11.36 2.68 10 2 C9.67 2.66 9.34 3.32 9 4 C7.68 3.34 6.36 2.68 5 2 C5 5.63 5 9.26 5 13 C3.68 12.67 2.36 12.34 1 12 C1.01740234 11.07767578 1.01740234 11.07767578 1.03515625 10.13671875 C1.04417969 9.32847656 1.05320313 8.52023437 1.0625 7.6875 C1.07410156 6.88699219 1.08570313 6.08648437 1.09765625 5.26171875 C1.09657855 2.83138666 1.09657855 2.83138666 0 0 Z " fill="#C5C5C5" transform="translate(1,1)"/>
<path d="M0 0 C0 5.28 0 10.56 0 16 C-10.7421875 16.1953125 -10.7421875 16.1953125 -14 16 C-14.66 15.34 -15.32 14.68 -16 14 C-15.01 14 -14.02 14 -13 14 C-13 13.01 -13 12.02 -13 11 C-12.01 11 -11.02 11 -10 11 C-10 10.34 -10 9.68 -10 9 C-12.31 8.67 -14.62 8.34 -17 8 C-17 7.67 -17 7.34 -17 7 C-12.83861737 6.91840426 -9.0527516 7.01751476 -5 8 C-5 7.34 -5 6.68 -5 6 C-4.01 6 -3.02 6 -2 6 C-2 5.34 -2 4.68 -2 4 C-7.28 3.34 -12.56 2.68 -18 2 C-18 1.67 -18 1.34 -18 1 C-11.93303301 0.22959149 -6.11485027 -0.09706112 0 0 Z " fill="#080604" transform="translate(86,14)"/>
<path d="M0 0 C1.62490954 -0.02698189 3.24994633 -0.04638757 4.875 -0.0625 C5.77992187 -0.07410156 6.68484375 -0.08570312 7.6171875 -0.09765625 C10 0 10 0 12 1 C12.1875 3.375 12.1875 3.375 12 6 C8.79619983 8.13586678 7.98060033 8.23132175 4.3125 8.125 C3.10013672 8.09792969 3.10013672 8.09792969 1.86328125 8.0703125 C0.94095703 8.03550781 0.94095703 8.03550781 0 8 C0 5.36 0 2.72 0 0 Z " fill="#E1882D" transform="translate(5,18)"/>
<path d="M0 0 C2.97 0 5.94 0 9 0 C9 2.97 9 5.94 9 9 C6.03 9 3.06 9 0 9 C0 6.03 0 3.06 0 0 Z " fill="#606160" transform="translate(76,2)"/>
<path d="M0 0 C2.97 0 5.94 0 9 0 C9 2.97 9 5.94 9 9 C6.03 9 3.06 9 0 9 C0 6.03 0 3.06 0 0 Z " fill="#6A6A6A" transform="translate(65,2)"/>
<path d="M0 0 C1.28003906 -0.00515625 2.56007813 -0.0103125 3.87890625 -0.015625 C7.20664848 0.23276849 9.45867957 0.80918858 12.4375 2.25 C12.4375 2.91 12.4375 3.57 12.4375 4.25 C11.60347656 4.08757813 10.76945312 3.92515625 9.91015625 3.7578125 C6.18408184 3.21294223 2.63961041 3.1174024 -1.125 3.125 C-3.04505859 3.12113281 -3.04505859 3.12113281 -5.00390625 3.1171875 C-8.00557844 3.22921478 -10.65336189 3.54644645 -13.5625 4.25 C-13.5625 3.59 -13.5625 2.93 -13.5625 2.25 C-8.90492588 0.43592167 -4.98729225 -0.02013034 0 0 Z " fill="#2184DE" transform="translate(71.5625,15.75)"/>
<path d="M0 0 C0.99 0 1.98 0 3 0 C3 1.32 3 2.64 3 4 C3.99 4 4.98 4 6 4 C6 2.68 6 1.36 6 0 C7.32 0 8.64 0 10 0 C10 1.98 10 3.96 10 6 C6.7 6 3.4 6 0 6 C0 4.02 0 2.04 0 0 Z " fill="#D6812B" transform="translate(44,20)"/>
<path d="M0 0 C0.66 0 1.32 0 2 0 C2.33 2.97 2.66 5.94 3 9 C5.97 9.33 8.94 9.66 12 10 C12 10.33 12 10.66 12 11 C5.73 11 -0.54 11 -7 11 C-7.33 10.34 -7.66 9.68 -8 9 C-5.36 9 -2.72 9 0 9 C0 6.03 0 3.06 0 0 Z " fill="#DCDEDC" transform="translate(74,2)"/>
<path d="M0 0 C1.32 0.33 2.64 0.66 4 1 C4 1.66 4 2.32 4 3 C4.66 3 5.32 3 6 3 C6.33 2.01 6.66 1.02 7 0 C7.99 0 8.98 0 10 0 C8.87548273 2.9719385 7.77706209 5.33440687 6 8 C4.68 7.67 3.36 7.34 2 7 C1.34 4.69 0.68 2.38 0 0 Z " fill="#EB8E2F" transform="translate(19,20)"/>
<path d="M0 0 C0 1.65 0 3.3 0 5 C-0.99 5.495 -0.99 5.495 -2 6 C-2 5.34 -2 4.68 -2 4 C-7.28 3.34 -12.56 2.68 -18 2 C-18 1.67 -18 1.34 -18 1 C-11.93303301 0.22959149 -6.11485027 -0.09706112 0 0 Z " fill="#050E1D" transform="translate(86,14)"/>
<path d="M0 0 C3.3 0 6.6 0 10 0 C10 1.98 10 3.96 10 6 C9.01 6 8.02 6 7 6 C7 4.35 7 2.7 7 1 C5.68 1 4.36 1 3 1 C3 2.65 3 4.3 3 6 C2.01 6 1.02 6 0 6 C0 4.02 0 2.04 0 0 Z " fill="#F89633" transform="translate(31,20)"/>
<path d="M0 0 C0 3.63 0 7.26 0 11 C-1.32 10.67 -2.64 10.34 -4 10 C-4 7.03 -4 4.06 -4 1 C-2 0 -2 0 0 0 Z " fill="#787878" transform="translate(6,3)"/>
<path d="M0 0 C2.64 0 5.28 0 8 0 C8 0.33 8 0.66 8 1 C6.35 1 4.7 1 3 1 C3 2.98 3 4.96 3 7 C3.99 7.33 4.98 7.66 6 8 C4.02 8 2.04 8 0 8 C0 5.36 0 2.72 0 0 Z " fill="#FA9834" transform="translate(5,18)"/>
<path d="M0 0 C2.475 0.495 2.475 0.495 5 1 C5 2.32 5 3.64 5 5 C3.35 5 1.7 5 0 5 C0 3.35 0 1.7 0 0 Z " fill="#201308" transform="translate(8,19)"/>
<path d="M0 0 C0 0.33 0 0.66 0 1 C-0.73605469 1.06058594 -1.47210938 1.12117188 -2.23046875 1.18359375 C-3.20628906 1.26738281 -4.18210937 1.35117187 -5.1875 1.4375 C-6.15042969 1.51871094 -7.11335938 1.59992187 -8.10546875 1.68359375 C-10.78649602 1.97666151 -13.3662986 2.42703754 -16 3 C-16 2.34 -16 1.68 -16 1 C-10.44860651 -1.48351814 -5.83475015 -0.85330338 0 0 Z " fill="#0C399C" transform="translate(74,17)"/>
<path d="M0 0 C6.75 -0.125 6.75 -0.125 9 1 C9 1.66 9 2.32 9 3 C5.7 3 2.4 3 -1 3 C-0.67 2.01 -0.34 1.02 0 0 Z " fill="#C6CA18" transform="translate(67,22)"/>
<path d="M0 0 C0.99 0 1.98 0 3 0 C3.66 1.98 4.32 3.96 5 6 C3.35 6 1.7 6 0 6 C0 4.02 0 2.04 0 0 Z " fill="#F39332" transform="translate(44,20)"/>
<path d="M0 0 C2 1.8125 2 1.8125 4 4 C4 4.99 4 5.98 4 7 C2.68 7.33 1.36 7.66 0 8 C0 5.36 0 2.72 0 0 Z " fill="#A4A5A4" transform="translate(10,6)"/>
<path d="M0 0 C1.65 0 3.3 0 5 0 C4.67 1.32 4.34 2.64 4 4 C2.68 4 1.36 4 0 4 C0 2.68 0 1.36 0 0 Z " fill="#872C29" transform="translate(69,24)"/>
</svg>
